<svg width="32" height="32" fill="none" xmlns="http://www.w3.org/2000/svg"><path fill="#E5E5E5" d="M0 0h32v32H0z"/><g clip-path="url(#a)"><path fill="#fff" d="M-714-22H54v1024h-768z"/><path fill="#fff" d="M-714-22H54v74h-768z"/><g fill-rule="evenodd" clip-rule="evenodd" fill="#000"><path d="M16 7h-28V4h28v3zM16 17h-28v-3h28v3zM16 27h-28v-3h28v3z"/></g><path opacity=".3" fill="#000" d="M-714-22H54v1024h-768z"/><path fill="#fff" d="M-466-22H54v1024h-520z"/><g fill="#000"><path d="M7.16 9.282 9.28 7.161l15.556 15.556-2.121 2.122z"/><path d="m22.717 7.161 2.121 2.122L9.282 24.839l-2.121-2.121z"/></g></g><defs><clipPath id="a"><path fill="#fff" transform="translate(-714 -22)" d="M0 0h768v1024H0z"/></clipPath></defs></svg>